<svg width="309" height="220" viewBox="0 0 309 220" fill="none" xmlns="http://www.w3.org/2000/svg">
<circle cx="11" cy="11" r="11" fill="#D9D7D7" fill-opacity="0.4"/>
<circle cx="11" cy="44" r="11" fill="#D9D7D7" fill-opacity="0.4"/>
<circle cx="11" cy="77" r="11" fill="#D9D7D7" fill-opacity="0.4"/>
<circle cx="11" cy="110" r="11" fill="#D9D7D7" fill-opacity="0.4"/>
<circle cx="11" cy="143" r="11" fill="#D9D7D7" fill-opacity="0.4"/>
<circle cx="11" cy="176" r="11" fill="#D9D7D7" fill-opacity="0.4"/>
<circle cx="11" cy="209" r="11" fill="#D9D7D7" fill-opacity="0.4"/>
<circle cx="52" cy="11" r="11" fill="#D9D7D7" fill-opacity="0.4"/>
<circle cx="52" cy="44" r="11" fill="#D9D7D7" fill-opacity="0.4"/>
<circle cx="52" cy="77" r="11" fill="#D9D7D7" fill-opacity="0.4"/>
<circle cx="52" cy="110" r="11" fill="#D9D7D7" fill-opacity="0.4"/>
<circle cx="52" cy="143" r="11" fill="#D9D7D7" fill-opacity="0.4"/>
<circle cx="52" cy="176" r="11" fill="#D9D7D7" fill-opacity="0.4"/>
<circle cx="52" cy="209" r="11" fill="#D9D7D7" fill-opacity="0.4"/>
<circle cx="93" cy="11" r="11" fill="#D9D7D7" fill-opacity="0.4"/>
<circle cx="93" cy="44" r="11" fill="#D9D7D7" fill-opacity="0.4"/>
<circle cx="93" cy="77" r="11" fill="#D9D7D7" fill-opacity="0.4"/>
<circle cx="93" cy="110" r="11" fill="#D9D7D7" fill-opacity="0.4"/>
<circle cx="93" cy="143" r="11" fill="#D9D7D7" fill-opacity="0.4"/>
<circle cx="93" cy="176" r="11" fill="#D9D7D7" fill-opacity="0.4"/>
<circle cx="93" cy="209" r="11" fill="#D9D7D7" fill-opacity="0.4"/>
<circle cx="134" cy="11" r="11" fill="#D9D7D7" fill-opacity="0.4"/>
<circle cx="134" cy="44" r="11" fill="#D9D7D7" fill-opacity="0.4"/>
<circle cx="134" cy="77" r="11" fill="#D9D7D7" fill-opacity="0.4"/>
<circle cx="134" cy="110" r="11" fill="#D9D7D7" fill-opacity="0.4"/>
<circle cx="134" cy="143" r="11" fill="#D9D7D7" fill-opacity="0.4"/>
<circle cx="134" cy="176" r="11" fill="#D9D7D7" fill-opacity="0.4"/>
<circle cx="134" cy="209" r="11" fill="#D9D7D7" fill-opacity="0.4"/>
<circle cx="175" cy="11" r="11" fill="#D9D7D7" fill-opacity="0.4"/>
<circle cx="175" cy="44" r="11" fill="#D9D7D7" fill-opacity="0.4"/>
<circle cx="175" cy="77" r="11" fill="#D9D7D7" fill-opacity="0.4"/>
<circle cx="175" cy="110" r="11" fill="#D9D7D7" fill-opacity="0.4"/>
<circle cx="175" cy="143" r="11" fill="#D9D7D7" fill-opacity="0.4"/>
<circle cx="175" cy="176" r="11" fill="#D9D7D7" fill-opacity="0.4"/>
<circle cx="175" cy="209" r="11" fill="#D9D7D7" fill-opacity="0.4"/>
<circle cx="216" cy="11" r="11" fill="#D9D7D7" fill-opacity="0.4"/>
<circle cx="216" cy="44" r="11" fill="#D9D7D7" fill-opacity="0.4"/>
<circle cx="216" cy="77" r="11" fill="#D9D7D7" fill-opacity="0.4"/>
<circle cx="216" cy="110" r="11" fill="#D9D7D7" fill-opacity="0.4"/>
<circle cx="216" cy="143" r="11" fill="#D9D7D7" fill-opacity="0.4"/>
<circle cx="216" cy="176" r="11" fill="#D9D7D7" fill-opacity="0.4"/>
<circle cx="216" cy="209" r="11" fill="#D9D7D7" fill-opacity="0.4"/>
<circle cx="257" cy="11" r="11" fill="#D9D7D7" fill-opacity="0.4"/>
<circle cx="257" cy="44" r="11" fill="#D9D7D7" fill-opacity="0.4"/>
<circle cx="257" cy="77" r="11" fill="#D9D7D7" fill-opacity="0.4"/>
<circle cx="257" cy="110" r="11" fill="#D9D7D7" fill-opacity="0.4"/>
<circle cx="257" cy="143" r="11" fill="#D9D7D7" fill-opacity="0.4"/>
<circle cx="257" cy="176" r="11" fill="#D9D7D7" fill-opacity="0.4"/>
<circle cx="257" cy="209" r="11" fill="#D9D7D7" fill-opacity="0.4"/>
<circle cx="298" cy="11" r="11" fill="#D9D7D7" fill-opacity="0.4"/>
<circle cx="298" cy="44" r="11" fill="#D9D7D7" fill-opacity="0.4"/>
<circle cx="298" cy="77" r="11" fill="#D9D7D7" fill-opacity="0.4"/>
<circle cx="298" cy="110" r="11" fill="#D9D7D7" fill-opacity="0.4"/>
<circle cx="298" cy="143" r="11" fill="#D9D7D7" fill-opacity="0.4"/>
<circle cx="298" cy="176" r="11" fill="#D9D7D7" fill-opacity="0.4"/>
<circle cx="298" cy="209" r="11" fill="#D9D7D7" fill-opacity="0.4"/>
</svg>
