<?xml version="1.0" encoding="utf-8"?>
<!-- Generator: Adobe Illustrator 23.0.0, SVG Export Plug-In . SVG Version: 6.00 Build 0)  -->
<svg version="1.1" id="Layer_1" xmlns="http://www.w3.org/2000/svg" xmlns:xlink="http://www.w3.org/1999/xlink" x="0px" y="0px"
	 viewBox="0 0 2000 2000" style="enable-background:new 0 0 2000 2000;" xml:space="preserve">
<style type="text/css">
	.st0{fill:#6DCFF6;}
	.st1{fill:#000B16;}
	.st2{fill:#B9E5FB;}
	.st3{fill:#011C40;}
	.st4{fill:#F27E63;}
	.st5{fill:#916646;}
	.st6{fill:#594B46;}
	.st7{fill:#423937;}
	.st8{fill:#493C3A;}
	.st9{fill:#FFFFFF;}
	.st10{fill:#002356;}
	.st11{opacity:0.33;fill:#DBDBDB;}
</style>
<g>
	<path class="st0" d="M1099.42,1127.45c-0.27-0.04-0.57-0.04-0.9,0.02c-0.33,0.03-0.62,0.1-0.87,0.22
		c-2.75,0.82-4.89,2.96-5.48,5.69c-3.31,0.44-6.61,0.88-9.92,1.32c0.12-3.9-0.37-7.88-1.54-11.81c1.02-0.5,2.04-1,3.06-1.5
		c1.34,1.24,3.39,1.62,5.11,0.79c2.18-1.05,3.11-3.74,2.15-5.93c-0.98-2.23-3.43-3.09-5.63-2.42c-0.17,0.03-0.34,0.09-0.51,0.18
		c-0.19,0.08-0.34,0.18-0.46,0.29c-1.42,1-2.24,2.64-2.05,4.32c-0.89,0.44-1.79,0.87-2.68,1.31c-2.42-6.26-6.37-11.56-11.29-15.57
		c0.59-0.98,1.18-1.95,1.77-2.93c1.8,0.32,3.73-0.47,4.73-2.1c1.27-2.06,0.6-4.83-1.4-6.15c-2.03-1.35-4.55-0.75-6.04,1.01
		c-0.12,0.11-0.24,0.25-0.33,0.43c-0.11,0.17-0.19,0.33-0.23,0.49c-0.66,1.61-0.46,3.43,0.61,4.74c-0.53,0.88-1.07,1.76-1.6,2.64
		c-5.42-3.72-11.77-6.01-18.44-6.53c0.15-1.16,0.29-2.32,0.44-3.48c2.94-0.73,5.31-3.21,5.73-6.34c0.53-3.96-2.34-7.69-6.24-8.34
		c-3.98-0.67-7.38,1.93-8.45,5.58c-0.11,0.25-0.19,0.54-0.21,0.88c-0.06,0.33-0.06,0.63-0.01,0.9c0.09,2.87,1.61,5.48,4.1,6.75
		c-0.17,1.34-0.34,2.68-0.51,4.01c-2.92,0.17-5.86,0.68-8.77,1.57c-2.27,0.69-4.41,1.58-6.44,2.64c-0.73-1.5-1.45-3-2.18-4.5
		c1.25-1.34,1.63-3.38,0.81-5.11c-1.04-2.18-3.72-3.13-5.92-2.17c-2.24,0.97-3.11,3.41-2.44,5.62c0.03,0.17,0.08,0.34,0.18,0.51
		c0.08,0.19,0.18,0.34,0.29,0.46c0.99,1.43,2.63,2.25,4.31,2.07c0.75,1.55,1.5,3.1,2.25,4.66c-5.21,3.29-9.46,7.76-12.47,12.93
		c-2.53-1.99-5.07-3.99-7.6-5.98c0.89-2.89-0.02-6.21-2.49-8.17c-3.13-2.49-7.79-1.95-10.36,1.06c-2.62,3.07-2.14,7.32,0.44,10.11
		c0.16,0.23,0.37,0.44,0.64,0.63c0.25,0.22,0.51,0.37,0.76,0.47c2.51,1.4,5.53,1.44,7.9-0.05c2.8,2.2,5.6,4.41,8.4,6.61
		c-1.92,4.7-2.9,9.8-2.8,15.01c-0.81-0.48-1.78-0.73-2.77-0.63c-2.41,0.24-4.2,2.45-4.04,4.84c0.16,2.44,2.17,4.07,4.47,4.19
		c0.16,0.03,0.35,0.03,0.55,0c0.2-0.01,0.38-0.05,0.53-0.12c0.8-0.22,1.52-0.62,2.09-1.16c0.22,1.04,0.48,2.09,0.8,3.13
		c1.33,4.36,3.38,8.31,5.98,11.74c-3.35,2.69-6.69,5.37-10.04,8.06c-2.62-1.52-6.05-1.38-8.52,0.58c-3.13,2.48-3.66,7.15-1.31,10.33
		c2.39,3.25,6.65,3.74,9.95,1.85c0.26-0.1,0.51-0.26,0.76-0.48c0.27-0.19,0.48-0.41,0.63-0.64c1.93-2.13,2.65-5.07,1.74-7.71
		c3.38-2.72,6.76-5.43,10.15-8.15c4.23,4.24,9.41,7.41,15.07,9.26c-0.63,1.74-1.26,3.48-1.89,5.23c-1.83,0.04-3.56,1.19-4.22,2.99
		c-0.84,2.27,0.37,4.85,2.58,5.75c2.26,0.92,4.61-0.16,5.73-2.18c0.1-0.13,0.18-0.3,0.24-0.49c0.08-0.19,0.12-0.36,0.13-0.53
		c0.33-1.71-0.23-3.45-1.53-4.53c0.65-1.8,1.3-3.6,1.95-5.4c5.69,1.35,11.76,1.41,17.77-0.09c1.07,3.52,2.14,7.03,3.21,10.55
		c-2.38,1.86-3.53,5.1-2.63,8.13c1.14,3.83,5.28,6.05,9.11,5.06c3.9-1.02,5.94-4.78,5.42-8.55c0-0.28-0.05-0.57-0.17-0.89
		c-0.08-0.32-0.2-0.6-0.36-0.83c-1.26-2.58-3.72-4.34-6.51-4.48c-1.07-3.52-2.15-7.05-3.22-10.57c2.17-0.86,4.22-1.91,6.14-3.11
		c0.6,0.62,1.19,1.23,1.79,1.85c-0.77,1.66-0.49,3.72,0.83,5.1c1.67,1.75,4.52,1.8,6.3,0.21c1.82-1.63,1.88-4.22,0.56-6.1
		c-0.08-0.15-0.19-0.29-0.33-0.43c-0.13-0.15-0.27-0.26-0.42-0.35c-1.39-1.04-3.2-1.31-4.74-0.61c-0.47-0.48-0.93-0.96-1.4-1.44
		c2.44-1.84,4.63-3.95,6.53-6.28c0.67,0.27,1.33,0.55,2,0.82c-0.04,1.83,1.04,3.61,2.81,4.34c2.23,0.93,4.86-0.16,5.86-2.34
		c1.02-2.22,0.03-4.62-1.94-5.81c-0.13-0.11-0.29-0.19-0.48-0.26c-0.18-0.09-0.36-0.13-0.52-0.15c-1.69-0.4-3.46,0.08-4.59,1.34
		c-0.41-0.17-0.82-0.34-1.23-0.5c3.05-4.47,5.13-9.56,6.06-14.94c3.73-0.49,7.45-0.99,11.18-1.48c1.45,2.65,4.46,4.32,7.59,3.92
		c3.96-0.5,6.83-4.22,6.48-8.16C1106.6,1130.18,1103.22,1127.55,1099.42,1127.45z"/>
	<g>
		<path class="st0" d="M1029.02,1127.51c-0.24-0.01-0.48-0.03-0.72-0.07c-3.33-0.54-5.59-3.67-5.05-7c0.54-3.33,3.67-5.59,7-5.05
			l0.05,0.01c-0.15,0.06-0.3,0.13-0.45,0.2c0,0,0,0,0,0c-2.57,0.37-4.73,2.37-5.17,5.07
			C1024.18,1123.75,1026.08,1126.67,1029.02,1127.51z"/>
		
			<ellipse transform="matrix(0.811 -0.5851 0.5851 0.811 -461.4397 815.3411)" class="st1" cx="1031.1" cy="1121.79" rx="5.69" ry="5.69"/>
	</g>
	<g>
		<path class="st0" d="M1054.64,1154.57c-0.13-0.01-0.26-0.02-0.4-0.04c-1.82-0.29-3.05-2-2.76-3.82s2-3.05,3.82-2.76l0.03,0
			c-0.08,0.03-0.17,0.07-0.24,0.11c0,0,0,0,0,0c-1.4,0.2-2.58,1.29-2.82,2.77C1052,1152.52,1053.04,1154.12,1054.64,1154.57z"/>
		<circle class="st1" cx="1055.77" cy="1151.46" r="3.11"/>
	</g>
	<g>
		<path class="st0" d="M1055.81,1131.03c-0.13-0.01-0.26-0.02-0.4-0.04c-1.82-0.29-3.05-2-2.76-3.82c0.29-1.82,2-3.05,3.82-2.76
			l0.03,0c-0.08,0.03-0.17,0.07-0.24,0.11c0,0,0,0,0,0c-1.4,0.2-2.58,1.29-2.82,2.77
			C1053.17,1128.98,1054.21,1130.57,1055.81,1131.03z"/>
		<circle class="st1" cx="1056.94" cy="1127.91" r="3.11"/>
	</g>
	<g>
		<path class="st0" d="M1026.6,1154.65c-0.13-0.01-0.26-0.02-0.4-0.04c-1.82-0.29-3.05-2-2.76-3.82c0.29-1.82,2-3.05,3.82-2.76
			l0.03,0c-0.08,0.03-0.17,0.07-0.24,0.11c0,0,0,0,0,0c-1.4,0.2-2.58,1.29-2.82,2.77C1023.96,1152.6,1025,1154.2,1026.6,1154.65z"/>
		<path class="st1" d="M1030.8,1152.03c-0.27,1.69-1.87,2.84-3.56,2.57s-2.84-1.87-2.57-3.56s1.87-2.84,3.56-2.57
			S1031.08,1150.34,1030.8,1152.03z"/>
	</g>
	<circle class="st1" cx="997.75" cy="1105.85" r="4.07"/>
	<circle class="st1" cx="1099.74" cy="1135.54" r="4.07"/>
	<circle class="st1" cx="1060.78" cy="1186.92" r="4.07"/>
	<path class="st0" d="M999.31,1111.07c-0.9,0.36-1.91,0.49-2.94,0.32c-3.02-0.49-5.07-3.33-4.58-6.34c0.49-3.02,3.33-5.07,6.34-4.58
		l0.04,0.01c-1.74,0.7-3.08,2.27-3.4,4.25C994.29,1107.73,996.32,1110.56,999.31,1111.07z"/>
	<path class="st0" d="M1101.68,1140.49c-0.9,0.36-1.91,0.49-2.94,0.32c-3.02-0.49-5.07-3.33-4.58-6.34
		c0.49-3.02,3.33-5.07,6.34-4.58l0.04,0.01c-1.74,0.7-3.08,2.27-3.4,4.25C1096.66,1137.15,1098.69,1139.98,1101.68,1140.49z"/>
	<path class="st0" d="M1062.98,1192.24c-0.9,0.36-1.91,0.49-2.94,0.32c-3.02-0.49-5.07-3.33-4.58-6.34
		c0.49-3.02,3.33-5.07,6.34-4.58l0.04,0.01c-1.74,0.7-3.08,2.27-3.4,4.25C1057.96,1188.9,1059.99,1191.73,1062.98,1192.24z"/>
	<path class="st0" d="M1030.96,1182.19c-0.45,0.18-0.96,0.25-1.47,0.16c-1.51-0.24-2.53-1.66-2.29-3.17s1.66-2.53,3.17-2.29l0.02,0
		c-0.87,0.35-1.54,1.13-1.7,2.13C1028.45,1180.52,1029.46,1181.93,1030.96,1182.19z"/>
	<path class="st0" d="M1081.14,1161.3c-0.45,0.18-0.96,0.25-1.47,0.16c-1.51-0.24-2.53-1.66-2.29-3.17
		c0.24-1.51,1.66-2.53,3.17-2.29l0.02,0c-0.87,0.35-1.54,1.13-1.7,2.13C1078.63,1159.63,1079.65,1161.04,1081.14,1161.3z"/>
	<path class="st0" d="M1071.7,1099.45c-0.45,0.18-0.96,0.25-1.47,0.16c-1.51-0.24-2.53-1.66-2.29-3.17s1.66-2.53,3.17-2.29l0.02,0
		c-0.87,0.35-1.54,1.13-1.7,2.13C1069.19,1097.78,1070.21,1099.19,1071.7,1099.45z"/>
</g>
<g>
	<path class="st0" d="M1508.26,988.69c-0.94,0-1.93,0.17-2.99,0.55c-1.09,0.27-2.01,0.68-2.79,1.19
		c-8.73,4.22-14.71,12.51-15.2,21.93c-10.79,3.25-21.58,6.49-32.37,9.74c-1.72-13.06-5.48-26.06-11.49-38.56
		c3.13-2.22,6.27-4.44,9.4-6.65c5.15,3.43,12.18,3.57,17.47-0.13c6.7-4.68,8.35-14.14,3.96-20.93c-4.48-6.92-13.1-8.45-20.08-5.02
		c-0.54,0.18-1.08,0.47-1.61,0.89c-0.58,0.36-1.03,0.78-1.37,1.22c-4.2,4.1-6.03,10.01-4.51,15.51c-2.74,1.94-5.48,3.88-8.22,5.82
		c-11.46-19.58-27.48-35.11-46.05-45.83c1.44-3.58,2.89-7.15,4.34-10.73c6.18,0.1,12.17-3.58,14.63-9.55
		c3.11-7.55-0.61-16.41-7.98-19.75c-7.51-3.4-15.59-0.03-19.61,6.62c-0.36,0.44-0.66,0.98-0.88,1.62c-0.29,0.62-0.44,1.21-0.49,1.77
		c-1.32,5.72,0.33,11.68,4.59,15.48c-1.3,3.23-2.61,6.45-3.91,9.68c-20.08-9.49-42.51-13.69-65-11.83
		c-0.14-3.95-0.27-7.9-0.41-11.85c9.4-4,15.97-13.57,15.68-24.23c-0.38-13.49-11.95-24.37-25.3-24.46
		c-13.63-0.09-23.56,10.42-25.15,23.16c-0.24,0.9-0.33,1.91-0.23,3.04c-0.02,1.12,0.14,2.12,0.44,3
		c1.85,9.52,8.34,17.41,17.33,20.29c0.16,4.55,0.31,9.1,0.47,13.65c-9.63,2.15-19.16,5.43-28.41,9.97
		c-7.19,3.53-13.86,7.66-20.06,12.28c-3.23-4.61-6.45-9.21-9.68-13.82c3.45-5.13,3.63-12.16-0.04-17.47
		c-4.64-6.72-14.1-8.42-20.91-4.06c-6.94,4.45-8.52,13.06-5.12,20.05c0.18,0.54,0.46,1.08,0.88,1.62c0.36,0.58,0.77,1.03,1.21,1.38
		c4.08,4.22,9.98,6.08,15.49,4.58c3.34,4.77,6.68,9.54,10.02,14.31c-15.62,13.77-27.35,30.97-34.59,49.86
		c-9.53-5.28-19.06-10.56-28.58-15.84c1.41-10.12-3.42-20.68-12.71-25.91c-11.76-6.62-27.04-2.29-33.99,9.11
		c-7.09,11.64-3.19,25.56,6.92,33.49c0.65,0.67,1.47,1.27,2.48,1.76c0.95,0.6,1.89,0.97,2.8,1.17c9.11,3.31,19.22,1.81,26.32-4.41
		c10.53,5.83,21.06,11.67,31.59,17.51c-3.88,16.7-4.4,34.23-1.24,51.56c-2.98-1.17-6.32-1.47-9.58-0.6
		c-7.89,2.11-12.68,10.45-10.86,18.32c1.85,8.04,9.43,12.41,17.16,11.57c0.57,0.01,1.17-0.07,1.82-0.29
		c0.66-0.14,1.23-0.38,1.71-0.68c2.55-1.16,4.72-2.9,6.36-5.01c1.31,3.36,2.74,6.7,4.35,10c6.79,13.83,15.74,25.88,26.26,35.94
		c-9.71,10.77-19.41,21.53-29.12,32.3c-9.54-3.65-20.92-1.34-28.11,6.54c-9.1,9.97-8.34,25.83,1.21,35.17
		c9.74,9.53,24.18,8.87,34.18,0.81c0.8-0.48,1.57-1.14,2.28-2.02c0.79-0.79,1.37-1.62,1.77-2.47c5.28-8.13,6.1-18.32,1.64-26.63
		c9.81-10.89,19.63-21.77,29.44-32.65c16.39,11.87,35.36,19.63,55.23,22.74c-1.16,6.15-2.31,12.3-3.47,18.45
		c-6.08,1.12-11.23,5.9-12.46,12.24c-1.56,8.02,3.83,15.97,11.71,17.79c8.04,1.85,15.29-3.04,17.92-10.35
		c0.26-0.5,0.45-1.09,0.54-1.76c0.16-0.66,0.2-1.27,0.14-1.83c0.16-5.87-2.63-11.39-7.55-14.28c1.19-6.35,2.39-12.71,3.58-19.06
		c19.7,1.44,39.96-1.66,59.21-9.9c5.47,11.15,10.94,22.29,16.41,33.43c-6.94,7.5-9.02,18.92-4.38,28.53
		c5.87,12.15,20.88,17.34,33.1,11.95c12.47-5.5,17.23-19.15,13.46-31.43c-0.15-0.92-0.48-1.88-1.03-2.87
		c-0.44-1.03-1-1.88-1.63-2.56c-5.59-7.92-14.74-12.47-24.12-11.42c-5.48-11.17-10.96-22.34-16.44-33.51
		c6.77-4.05,13.06-8.63,18.81-13.7c2.32,1.73,4.64,3.46,6.97,5.19c-1.66,5.96,0.37,12.68,5.52,16.57
		c6.52,4.92,16.03,3.57,21.13-2.71c5.2-6.41,3.99-15.07-1.43-20.65c-0.34-0.45-0.78-0.88-1.35-1.26c-0.52-0.43-1.05-0.73-1.59-0.93
		c-5.2-2.72-11.38-2.64-16.14,0.51c-1.81-1.35-3.62-2.7-5.43-4.05c7.15-7.45,13.3-15.68,18.38-24.48c2.37,0.55,4.74,1.1,7.11,1.65
		c0.86,6.12,5.43,11.47,11.7,12.97c7.95,1.9,16.12-3.16,18.27-10.95c2.19-7.95-2.39-15.41-9.59-18.34
		c-0.49-0.28-1.07-0.49-1.74-0.61c-0.65-0.19-1.26-0.25-1.82-0.22c-5.85-0.41-11.49,2.14-14.58,6.94c-1.46-0.34-2.91-0.68-4.37-1.02
		c7.77-16.54,11.95-34.66,12.13-53.1c12.16-3.66,24.32-7.32,36.48-10.98c6.27,8.07,17.2,11.98,27.43,8.98
		c12.95-3.81,20.51-17.77,17.19-30.71C1533.68,993.91,1520.99,986.99,1508.26,988.69z"/>
	<g>
		<path class="st0" d="M1273.53,1026.88c-0.81,0.1-1.62,0.15-2.46,0.15c-11.39,0-20.63-9.23-20.63-20.63s9.23-20.63,20.63-20.63
			h0.17c-0.47,0.28-0.94,0.59-1.39,0.92c0,0,0,0-0.01,0c-8.39,2.61-14.49,10.45-14.49,19.7
			C1255.35,1016.96,1263.29,1025.67,1273.53,1026.88z"/>
		
			<ellipse transform="matrix(0.7071 -0.7071 0.7071 0.7071 -337.7026 1198.0912)" class="st1" cx="1277.37" cy="1006.69" rx="19.24" ry="19.24"/>
	</g>
	<g>
		<path class="st0" d="M1373.55,1103.3c-0.44,0.05-0.88,0.08-1.34,0.08c-6.21,0-11.25-5.04-11.25-11.25s5.04-11.25,11.25-11.25h0.09
			c-0.26,0.16-0.51,0.32-0.76,0.5c0,0,0,0-0.01,0c-4.57,1.42-7.9,5.7-7.9,10.75C1363.64,1097.89,1367.97,1102.64,1373.55,1103.3z"/>
		
			<ellipse transform="matrix(0.2298 -0.9732 0.9732 0.2298 -3.4835 2180.1863)" class="st1" cx="1375.65" cy="1092.29" rx="10.49" ry="10.49"/>
	</g>
	<g>
		<path class="st0" d="M1364.76,1024.16c-0.44,0.05-0.88,0.08-1.34,0.08c-6.21,0-11.25-5.04-11.25-11.25
			c0-6.21,5.04-11.25,11.25-11.25h0.09c-0.26,0.16-0.51,0.32-0.76,0.5c0,0,0,0-0.01,0c-4.57,1.42-7.9,5.7-7.9,10.75
			C1354.85,1018.75,1359.18,1023.5,1364.76,1024.16z"/>
		<circle class="st1" cx="1366.86" cy="1013.15" r="10.49"/>
	</g>
	<g>
		<path class="st0" d="M1280.12,1118.69c-0.44,0.05-0.88,0.08-1.34,0.08c-6.21,0-11.25-5.04-11.25-11.25
			c0-6.21,5.04-11.25,11.25-11.25h0.09c-0.26,0.16-0.51,0.32-0.76,0.5c0,0,0,0-0.01,0c-4.57,1.42-7.9,5.7-7.9,10.75
			C1270.21,1113.28,1274.54,1118.03,1280.12,1118.69z"/>
		
			<ellipse transform="matrix(0.7071 -0.7071 0.7071 0.7071 -407.6969 1231.0984)" class="st1" cx="1282.22" cy="1107.68" rx="10.49" ry="10.49"/>
	</g>
	<circle class="st1" cx="1157.56" cy="971.51" r="13.74"/>
	<circle class="st1" cx="1513.7" cy="1015.48" r="13.74"/>
	<circle class="st1" cx="1411.48" cy="1207.84" r="13.74"/>
	<path class="st0" d="M1165.58,988.08c-2.81,1.69-6.11,2.67-9.64,2.67c-10.32,0-18.69-8.36-18.69-18.69s8.36-18.69,18.69-18.69h0.15
		c-5.43,3.27-9.05,9.22-9.05,16.02C1147.05,979.66,1155.33,988,1165.58,988.08z"/>
	<path class="st0" d="M1522.82,1030.95c-2.81,1.69-6.11,2.67-9.64,2.67c-10.32,0-18.69-8.36-18.69-18.69s8.36-18.69,18.69-18.69
		h0.15c-5.43,3.27-9.05,9.22-9.05,16.02C1504.29,1022.53,1512.57,1030.87,1522.82,1030.95z"/>
	<path class="st0" d="M1421.7,1224.41c-2.81,1.69-6.11,2.67-9.64,2.67c-10.32,0-18.69-8.36-18.69-18.69
		c0-10.32,8.36-18.69,18.69-18.69h0.15c-5.43,3.27-9.05,9.22-9.05,16.02C1403.16,1215.99,1411.45,1224.33,1421.7,1224.41z"/>
	<path class="st0" d="M1309.48,1208.16c-1.41,0.85-3.06,1.33-4.82,1.33c-5.16,0-9.34-4.18-9.34-9.34s4.18-9.34,9.34-9.34h0.08
		c-2.71,1.64-4.52,4.61-4.52,8.01C1300.22,1203.95,1304.36,1208.12,1309.48,1208.16z"/>
	<path class="st0" d="M1465.57,1111.43c-1.41,0.85-3.06,1.33-4.82,1.33c-5.16,0-9.34-4.18-9.34-9.34s4.18-9.34,9.34-9.34h0.08
		c-2.71,1.64-4.52,4.61-4.52,8.01C1456.3,1107.22,1460.45,1111.39,1465.57,1111.43z"/>
	<path class="st0" d="M1400.72,910.27c-1.41,0.85-3.06,1.33-4.82,1.33c-5.16,0-9.34-4.18-9.34-9.34c0-5.16,4.18-9.34,9.34-9.34h0.08
		c-2.71,1.64-4.52,4.61-4.52,8.01C1391.45,906.06,1395.59,910.23,1400.72,910.27z"/>
</g>
<g>
	<path class="st0" d="M1116.15,851.32c-0.42,0-0.87,0.07-1.34,0.25c-0.49,0.12-0.9,0.3-1.25,0.53c-3.92,1.89-6.6,5.61-6.82,9.84
		c-4.84,1.46-9.68,2.91-14.52,4.37c-0.77-5.86-2.46-11.69-5.16-17.3c1.41-1,2.81-1.99,4.22-2.98c2.31,1.54,5.46,1.6,7.84-0.06
		c3.01-2.1,3.75-6.34,1.78-9.39c-2.01-3.11-5.88-3.79-9.01-2.25c-0.24,0.08-0.48,0.21-0.72,0.4c-0.26,0.16-0.46,0.35-0.62,0.55
		c-1.88,1.84-2.71,4.49-2.02,6.96c-1.23,0.87-2.46,1.74-3.69,2.61c-5.14-8.78-12.33-15.75-20.66-20.56c0.65-1.6,1.3-3.21,1.95-4.81
		c2.77,0.04,5.46-1.6,6.56-4.28c1.39-3.39-0.28-7.36-3.58-8.86c-3.37-1.53-6.99-0.01-8.8,2.97c-0.16,0.2-0.29,0.44-0.39,0.73
		c-0.13,0.28-0.2,0.54-0.22,0.79c-0.59,2.57,0.15,5.24,2.06,6.95c-0.59,1.45-1.17,2.89-1.75,4.34c-9.01-4.26-19.07-6.14-29.16-5.31
		c-0.06-1.77-0.12-3.54-0.18-5.31c4.22-1.8,7.17-6.09,7.03-10.87c-0.17-6.05-5.36-10.93-11.35-10.97
		c-6.11-0.04-10.57,4.67-11.28,10.39c-0.11,0.41-0.15,0.86-0.11,1.36c-0.01,0.5,0.06,0.95,0.2,1.35c0.83,4.27,3.74,7.81,7.77,9.1
		c0.07,2.04,0.14,4.08,0.21,6.13c-4.32,0.97-8.6,2.44-12.74,4.47c-3.22,1.58-6.22,3.44-9,5.51c-1.45-2.07-2.9-4.13-4.34-6.2
		c1.55-2.3,1.63-5.45-0.02-7.84c-2.08-3.02-6.33-3.78-9.38-1.82c-3.11,2-3.82,5.86-2.3,9c0.08,0.24,0.21,0.48,0.4,0.73
		c0.16,0.26,0.35,0.46,0.54,0.62c1.83,1.89,4.48,2.73,6.95,2.05c1.5,2.14,3,4.28,4.5,6.42c-7.01,6.18-12.27,13.89-15.52,22.37
		c-4.27-2.37-8.55-4.74-12.82-7.11c0.63-4.54-1.53-9.28-5.7-11.62c-5.28-2.97-12.13-1.03-15.25,4.09
		c-3.18,5.22-1.43,11.47,3.1,15.02c0.29,0.3,0.66,0.57,1.11,0.79c0.43,0.27,0.85,0.43,1.26,0.52c4.09,1.48,8.62,0.81,11.81-1.98
		c4.72,2.62,9.45,5.24,14.17,7.85c-1.74,7.49-1.97,15.36-0.56,23.13c-1.34-0.53-2.83-0.66-4.3-0.27c-3.54,0.95-5.69,4.69-4.87,8.22
		c0.83,3.6,4.23,5.57,7.7,5.19c0.25,0.01,0.53-0.03,0.82-0.13c0.3-0.06,0.55-0.17,0.77-0.31c1.14-0.52,2.12-1.3,2.85-2.25
		c0.59,1.51,1.23,3.01,1.95,4.49c3.04,6.2,7.06,11.61,11.78,16.12c-4.35,4.83-8.71,9.66-13.06,14.49c-4.28-1.64-9.38-0.6-12.61,2.93
		c-4.08,4.47-3.74,11.59,0.54,15.78c4.37,4.28,10.85,3.98,15.33,0.37c0.36-0.22,0.7-0.51,1.02-0.91c0.36-0.36,0.61-0.73,0.79-1.11
		c2.37-3.65,2.73-8.22,0.73-11.95c4.4-4.88,8.8-9.77,13.21-14.65c7.35,5.32,15.86,8.81,24.78,10.2c-0.52,2.76-1.04,5.52-1.56,8.28
		c-2.73,0.5-5.04,2.65-5.59,5.49c-0.7,3.6,1.72,7.16,5.25,7.98c3.6,0.83,6.86-1.36,8.04-4.65c0.12-0.23,0.2-0.49,0.24-0.79
		c0.07-0.3,0.09-0.57,0.06-0.82c0.07-2.63-1.18-5.11-3.39-6.41c0.54-2.85,1.07-5.7,1.61-8.55c8.84,0.65,17.93-0.74,26.56-4.44
		c2.45,5,4.91,10,7.36,15c-3.11,3.36-4.05,8.49-1.97,12.8c2.63,5.45,9.37,7.78,14.85,5.36c5.59-2.47,7.73-8.59,6.04-14.1
		c-0.07-0.41-0.21-0.84-0.46-1.29c-0.2-0.46-0.45-0.84-0.73-1.15c-2.51-3.55-6.61-5.59-10.82-5.12c-2.46-5.01-4.92-10.02-7.38-15.03
		c3.04-1.81,5.86-3.87,8.44-6.14c1.04,0.78,2.08,1.55,3.13,2.33c-0.75,2.67,0.17,5.69,2.48,7.44c2.92,2.21,7.19,1.6,9.48-1.21
		c2.33-2.87,1.79-6.76-0.64-9.26c-0.15-0.2-0.35-0.39-0.6-0.56c-0.23-0.19-0.47-0.33-0.71-0.42c-2.33-1.22-5.11-1.19-7.24,0.23
		c-0.81-0.61-1.63-1.21-2.44-1.82c3.21-3.34,5.97-7.03,8.25-10.98c1.06,0.25,2.13,0.49,3.19,0.74c0.39,2.75,2.43,5.15,5.25,5.82
		c3.57,0.85,7.23-1.42,8.2-4.91c0.98-3.57-1.07-6.91-4.3-8.23c-0.22-0.13-0.48-0.22-0.78-0.27c-0.29-0.09-0.57-0.11-0.82-0.1
		c-2.63-0.18-5.15,0.96-6.54,3.11c-0.65-0.15-1.31-0.3-1.96-0.46c3.48-7.42,5.36-15.55,5.44-23.82c5.45-1.64,10.91-3.28,16.36-4.92
		c2.81,3.62,7.72,5.38,12.3,4.03c5.81-1.71,9.2-7.97,7.71-13.77C1127.56,853.66,1121.86,850.56,1116.15,851.32z"/>
	<g>
		<path class="st0" d="M1010.85,868.45c-0.36,0.04-0.73,0.07-1.1,0.07c-5.11,0-9.25-4.14-9.25-9.25c0-5.11,4.14-9.25,9.25-9.25h0.07
			c-0.21,0.13-0.42,0.26-0.62,0.41c0,0,0,0,0,0c-3.76,1.17-6.5,4.69-6.5,8.84C1002.7,864,1006.26,867.91,1010.85,868.45z"/>
		
			<ellipse transform="matrix(0.7071 -0.7071 0.7071 0.7071 -311.1077 967.7113)" class="st1" cx="1012.58" cy="859.4" rx="8.63" ry="8.63"/>
	</g>
	<g>
		<path class="st0" d="M1055.72,902.74c-0.2,0.02-0.4,0.04-0.6,0.04c-2.79,0-5.05-2.26-5.05-5.05c0-2.79,2.26-5.05,5.05-5.05h0.04
			c-0.12,0.07-0.23,0.14-0.34,0.23c0,0,0,0,0,0c-2.05,0.64-3.54,2.56-3.54,4.82C1051.28,900.31,1053.22,902.44,1055.72,902.74z"/>
		<circle class="st1" cx="1056.67" cy="897.8" r="4.71"/>
	</g>
	<g>
		<path class="st0" d="M1051.78,867.23c-0.2,0.02-0.4,0.04-0.6,0.04c-2.79,0-5.05-2.26-5.05-5.05s2.26-5.05,5.05-5.05h0.04
			c-0.12,0.07-0.23,0.14-0.34,0.23c0,0,0,0,0,0c-2.05,0.64-3.54,2.56-3.54,4.82C1047.33,864.81,1049.28,866.94,1051.78,867.23z"/>
		<circle class="st1" cx="1052.72" cy="862.29" r="4.71"/>
	</g>
	<g>
		<path class="st0" d="M1013.81,909.64c-0.2,0.02-0.4,0.04-0.6,0.04c-2.79,0-5.05-2.26-5.05-5.05s2.26-5.05,5.05-5.05h0.04
			c-0.12,0.07-0.23,0.14-0.34,0.23c0,0,0,0,0,0c-2.05,0.64-3.54,2.56-3.54,4.82C1009.36,907.21,1011.31,909.35,1013.81,909.64z"/>
		<path class="st1" d="M1019.46,904.7c0,2.6-2.11,4.71-4.71,4.71c-2.6,0-4.71-2.11-4.71-4.71c0-2.6,2.11-4.71,4.71-4.71
			C1017.35,900,1019.46,902.1,1019.46,904.7z"/>
	</g>
	<circle class="st1" cx="958.83" cy="843.62" r="6.16"/>
	<circle class="st1" cx="1118.6" cy="863.34" r="6.16"/>
	<circle class="st1" cx="1072.74" cy="949.64" r="6.16"/>
	<path class="st0" d="M962.43,851.05c-1.26,0.76-2.74,1.2-4.32,1.2c-4.63,0-8.38-3.75-8.38-8.38c0-4.63,3.75-8.38,8.38-8.38h0.07
		c-2.44,1.47-4.06,4.14-4.06,7.19C954.11,847.27,957.83,851.01,962.43,851.05z"/>
	<path class="st0" d="M1122.69,870.28c-1.26,0.76-2.74,1.2-4.32,1.2c-4.63,0-8.38-3.75-8.38-8.38c0-4.63,3.75-8.38,8.38-8.38h0.07
		c-2.44,1.47-4.06,4.14-4.06,7.19C1114.37,866.5,1118.09,870.24,1122.69,870.28z"/>
	<path class="st0" d="M1077.32,957.07c-1.26,0.76-2.74,1.2-4.32,1.2c-4.63,0-8.38-3.75-8.38-8.38c0-4.63,3.75-8.38,8.38-8.38h0.07
		c-2.44,1.47-4.06,4.14-4.06,7.19C1069.01,953.29,1072.72,957.03,1077.32,957.07z"/>
	<path class="st0" d="M1026.98,949.78c-0.63,0.38-1.37,0.6-2.16,0.6c-2.32,0-4.19-1.88-4.19-4.19c0-2.32,1.88-4.19,4.19-4.19h0.03
		c-1.22,0.73-2.03,2.07-2.03,3.59C1022.83,947.89,1024.68,949.76,1026.98,949.78z"/>
	<path class="st0" d="M1097,906.38c-0.63,0.38-1.37,0.6-2.16,0.6c-2.32,0-4.19-1.88-4.19-4.19c0-2.32,1.88-4.19,4.19-4.19h0.03
		c-1.22,0.73-2.03,2.07-2.03,3.59C1092.85,904.49,1094.71,906.36,1097,906.38z"/>
	<path class="st0" d="M1067.91,816.14c-0.63,0.38-1.37,0.6-2.16,0.6c-2.32,0-4.19-1.88-4.19-4.19s1.88-4.19,4.19-4.19h0.03
		c-1.22,0.73-2.03,2.07-2.03,3.59C1063.75,814.25,1065.61,816.13,1067.91,816.14z"/>
</g>
<path class="st0" d="M899.18,1319.48c-6.72,11.73-48.38,6.6-71.29,2.79c-8.99-1.51-15.09-2.79-15.09-2.79l1.66,276.42H389.84
	l2.79-281.09c0,0-77.02,16.33-86.39,0c-6.9-12.08,0.23-27.98,4.43-68.41c1.48-14.28,2.6-31.65,2.6-52.99
	c0-81.71-25.69-140.07,25.66-242.77c30.66-61.3,96.24-88.51,144.13-100.49c1.3-0.32,2.56-0.65,3.83-0.94
	c0.83-0.2,1.67-0.39,2.48-0.58c29.15-6.72,50.31-7.71,50.31-7.71c62.64-17.19,122.02-5.31,164.27,9.8
	c8.39,1.62,17.77,3.77,27.7,6.54c6.61,1.87,13.44,3.99,20.42,6.46c1.3,0.45,2.61,0.92,3.93,1.41
	c41.43,15.27,86.6,42.34,110.52,90.17c51.35,102.71,25.66,161.07,25.66,242.78c0,27.31,1.82,48.09,3.91,64.25
	C900.21,1294.62,905.4,1308.59,899.18,1319.48z"/>
<path class="st2" d="M752.07,863.72c-10.42,21.54-42,40.17-119.59,40.85c-130.37,1.14-149.65-33.45-149.42-54.42
	c1.3-0.32,2.56-0.65,3.83-0.94c0.83-0.2,1.67-0.39,2.48-0.58c29.15-6.72,50.31-7.71,50.31-7.71c62.64-17.19,122.02-5.31,164.27,9.8
	c8.39,1.62,17.77,3.77,27.7,6.54C738.26,859.13,745.09,861.26,752.07,863.72z"/>
<g>
	<path class="st3" d="M505.89,1045.76c-35.95-93.48-24.81-165.73-16.52-197.13c-0.81,0.19-1.66,0.39-2.48,0.58
		c-3.26,0.78-6.61,1.62-10.03,2.55c-47.21,12.74-108.57,40.18-137.93,98.88c-51.35,102.7-25.66,161.06-25.66,242.77
		c0,21.34-1.12,38.71-2.6,52.99c-3.24,31.17-8.21,47.76-7.16,59.26l0,0l0,0c0.17,1.81,0.48,3.5,0.98,5.1
		c6.82,35.24,21.03,54.94,44.78,96.51l30.61,8.5l-3.4,180.25l79.1-0.1c0,0,16.23-16.26,17.85-43.02h11.99
		c55.57-90.88,66.39-225.86,55.58-341.26C534.86,1146.17,521.75,1087,505.89,1045.76z"/>
	<path class="st3" d="M902.02,1305.21c-0.35-9.6-3.36-22.64-5.94-42.87c-2.09-16.16-3.91-36.94-3.91-64.25
		c0-81.71,25.69-140.07-25.66-242.78c-23.92-47.83-69.09-74.9-110.52-90.17c-6.73-2.48-13.36-4.64-19.78-6.54
		c-1.54-0.47-3.05-0.91-4.56-1.33c7.34,36.97,12.43,105.16-19.41,190.54c-16.46,44.09-29.94,108.08-35.77,178.57
		c-9.09,109.92,0.47,235.64,46.45,326.53h10.69c1.62,26.76,17.85,43.02,17.85,43.02h79.52c25.97-45.44,72.55-290.27,72.55-290.27
		L902.02,1305.21z"/>
</g>
<ellipse class="st4" cx="611.27" cy="861.45" rx="102.63" ry="29.93"/>
<path class="st4" d="M676.05,856.94c-20.13,43.96-131.88,14.65-131.88,14.65l7.36-49.09l2.08-13.94l2.14-14.28l4.08-27.11h98.33
	l5.79,29.05l2.48,12.37l3.25,16.28L676.05,856.94z"/>
<path class="st5" d="M669.66,824.87c-36.09,11.35-89.92,3.31-118.14-2.37l2.08-13.94l2.14-14.28c17.7,6.64,36.86,10.29,56.88,10.29
	c0.63,0,1.23,0,1.85-0.03c17.28-0.2,33.9-3.11,49.46-8.32l2.48,12.37L669.66,824.87z"/>
<g>
	<path class="st4" d="M742.34,684.11c0,69.92-56.29,126.7-126.03,127.47c-0.48,0.01-0.97,0.01-1.45,0.01
		c-70.4,0-127.48-57.08-127.48-127.48c0-0.16,0.01-0.32,0.01-0.48h-0.49V506.9h254.96v166.16
		C742.17,676.7,742.34,680.39,742.34,684.11z"/>
	
		<ellipse transform="matrix(0.2331 -0.9724 0.9724 0.2331 -267.9268 979.226)" class="st4" cx="486.9" cy="659.49" rx="33.8" ry="33.8"/>
	
		<ellipse transform="matrix(0.9271 -0.3749 0.3749 0.9271 -193.069 326.5986)" class="st4" cx="742.82" cy="659.49" rx="33.8" ry="33.8"/>
	<path class="st6" d="M472.41,646.93c0,0-11.59,20.28,11.59,32.84L472.41,646.93z"/>
	<path class="st6" d="M757.31,643.07c0,0,11.59,20.28-11.59,32.84L757.31,643.07z"/>
	<polygon class="st5" points="486.9,659.49 520.7,576.43 709.02,576.43 739.93,658.52 722.54,556.15 506.21,556.15 	"/>
	
		<ellipse transform="matrix(0.9229 -0.3849 0.3849 0.9229 -199.3136 267.32)" class="st6" cx="568.02" cy="631.48" rx="9.66" ry="9.66"/>
	
		<ellipse transform="matrix(0.7612 -0.6485 0.6485 0.7612 -250.5908 582.4606)" class="st6" cx="665.56" cy="631.48" rx="9.66" ry="9.66"/>
	<polygon class="st6" points="618.24,657.56 618.24,712.6 596.99,704.88 	"/>
	<polygon class="st6" points="486.9,657.07 506.21,556.15 739.93,658.52 776.63,562.91 763.1,487.58 623.07,404.52 459.85,488.55 
		453.09,571.6 	"/>
	<polygon class="st7" points="623.07,404.52 506.21,556.15 459.85,488.55 	"/>
	<polygon class="st7" points="453.09,571.6 486.9,528.14 486.9,659.49 	"/>
	<polygon class="st7" points="623.07,404.52 722.54,556.15 763.1,487.58 	"/>
	<polygon class="st8" points="459.85,488.55 453.09,571.6 486.9,528.14 	"/>
	<polygon class="st8" points="566.09,478.46 614.38,556.15 506.21,556.15 	"/>
	<polygon class="st8" points="674.25,478.46 722.54,556.15 614.38,556.15 	"/>
	<polygon class="st7" points="566.09,478.89 673.29,478.89 614.38,556.15 	"/>
	<polygon class="st7" points="739.93,658.52 745.52,517.3 776.63,562.91 	"/>
	<polygon class="st8" points="763.1,487.58 776.63,562.91 745.72,517.52 	"/>
	<polygon class="st7" points="655.9,579.42 675.22,631.21 722.54,556.15 	"/>
	<polygon class="st8" points="506.21,555.88 655.9,579.06 675.22,631.21 	"/>
	<polygon class="st8" points="722.54,555.88 742.34,578.42 739.93,658.25 698.08,594.96 	"/>
</g>
<path class="st1" d="M471.81,1126.91l11.36-79.52l-58.42-42.2l52.11-153.43c3.42-0.92,6.77-1.77,10.03-2.55
	c0.83-0.2,1.67-0.39,2.48-0.58c-8.29,31.4-19.43,103.65,16.52,197.13c15.86,41.24,28.97,100.41,35.12,165.88L471.81,1126.91z"/>
<path class="st1" d="M733.1,1063.61l11.36,79.52l-67.98,83.24c5.83-70.48,19.31-134.47,35.77-178.57
	c31.84-85.38,26.75-153.57,19.41-190.54c1.51,0.42,3.02,0.86,4.56,1.33l55.31,162.82L733.1,1063.61z"/>
<polygon class="st1" points="424.75,1269.72 395.54,1367.09 416.63,1479.07 "/>
<polygon class="st1" points="773.67,1294.06 802.88,1391.44 781.78,1503.42 "/>
<g>
	<g>
		<path class="st2" d="M780.5,658.09c-1.34-6-3.65-11.77-6.31-17.35c-1.33-2.8-2.77-5.54-4.25-8.26l-1.13-2.03
			c-0.38-0.68-0.78-1.38-1.19-2.06c-0.84-1.36-1.72-2.72-2.73-4.04c-1.01-1.31-2.12-2.61-3.46-3.82c-1.35-1.19-2.92-2.37-5.13-3.04
			c-1.09-0.33-2.38-0.46-3.6-0.29c-1.22,0.16-2.3,0.62-3.18,1.15c-1.76,1.08-2.91,2.43-3.9,3.77c-1.92,2.72-3.15,5.58-4.23,8.45
			c-1.08,2.87-1.95,5.77-2.71,8.68c-0.93,3.5-1.74,7.02-2.47,10.54c-0.35,0.07-0.63,0.19-0.67,0.21l-0.01,0
			c0,0-3.66,14.36-5.66,23.14c-0.08,0.34-0.15,0.67-0.22,0.99c-0.38,1.19-0.76,2.37-1.16,3.54c-0.76,2.31-1.5,4.63-2.29,6.93
			l-0.63,1.86c-0.34,0.64-0.68,1.29-1.01,1.94c-1.46,2.88-2.76,5.81-2.74,8.11c0.01,0.43-0.02,0.8-0.05,1.15l-0.26,0.76l-0.63,1.87
			c-0.01,0.01-0.03,0.03-0.04,0.05c-0.73,0.78-1.61,0.53-1.61,0.53c-0.54,0.18-1.1,0.35-1.67,0.49c-12.35,3.11-31-2.71-31-2.71
			s-35.93-9.93-40.3-10.68c-2.15-0.37-10.09-3.89-17.63-7.39c-7.81-3.63-27.09-1.34-36.71,1.51c-11.06,3.29-22.56,6.28-24.89,8.21
			c-4.36,3.59-44.96,8.42-49.08,9.11c-4.12,0.69-11.25-4.02-13.94-5.22c-0.72-0.32-1.27-0.76-1.68-1.28c-1.13-1.4-1.26-3.31-1.2-4.5
			c0.07-1.63-1.75-5-1.75-5l-2.04-4.13l-0.01-0.01l-1.93-3.91l-2.86-7.57c-1.27-4.14-2.5-8.29-3.68-12.44
			c-1.02-5.81-2.26-11.61-3.77-17.37c-0.76-2.89-1.6-5.76-2.67-8.6c-1.05-2.84-2.26-5.67-4.1-8.38c-0.47-0.67-0.98-1.34-1.58-1.98
			c-0.58-0.65-1.28-1.26-2.09-1.82c-0.8-0.56-1.81-1.05-2.97-1.31c-1.16-0.27-2.45-0.25-3.59-0.01c-1.16,0.24-2.13,0.7-3.03,1.18
			c-0.86,0.51-1.64,1.06-2.33,1.65c-1.39,1.17-2.51,2.45-3.55,3.74c-2.01,2.59-3.66,5.35-5.1,8.05c-0.76,1.34-1.45,2.71-2.14,4.09
			c-0.72,1.36-1.34,2.77-1.99,4.16c-1.24,2.81-2.4,5.65-3.29,8.58c-0.94,2.91-1.62,5.9-2.01,8.92c-0.84,6.04-0.3,12.22,1.49,18.06
			l0.71,2.17c0.24,0.73,0.57,1.43,0.83,2.15c0.52,1.43,1.23,2.81,1.87,4.21c0.33,0.69,0.72,1.37,1.08,2.05
			c0.38,0.67,0.7,1.37,1.11,2.03c0.8,1.33,1.53,2.69,2.41,3.98c3.36,5.24,7.14,10.26,11.08,15.17c7.96,9.79,16.52,19.23,25.25,28.54
			c2.18,2.33,4.4,4.63,6.61,6.95l0.21,0.21l5.11,5.19l1.44,1.46c4.28,4.2,8.62,8.36,13.37,12.32c0.9,1.2,1.65,2.22,1.75,2.36
			c0.01,0.01,0.01,0.01,0.01,0.01s0,0,0.01,0c0.43,0.43,26.24,25.53,37.83,37.53c0.96,0.99,1.82,1.89,2.56,2.68
			c9.78,10.45,36.81,25.17,53.49,28.5c16.68,3.33,39.12-5.7,43.72-8.07c1.55-0.8,5.19-4.46,9.5-9.09l0.01-0.01
			c8.46-9.1,19.46-21.94,22.13-24.14c2.42-2,15.4-13.05,26.01-22.71c0.28-0.25,0.56-0.51,0.83-0.75c0.03-0.03,0.07-0.06,0.1-0.1
			c0.05-0.05,0.1-0.09,0.16-0.14c6.6-6.04,12.08-11.37,13.17-13.35c0.24-0.44,0.46-0.89,0.65-1.34c0.14-0.15,0.3-0.3,0.44-0.44
			c1.77-1.77,3.51-3.55,5.24-5.34c2.23-2.34,4.45-4.69,6.62-7.07c1.02-1.1,2.03-2.21,3.03-3.33c3.3-3.67,6.52-7.39,9.66-11.16
			c2.04-2.46,4.03-4.94,6-7.44c0.98-1.25,1.93-2.52,2.88-3.78c0.94-1.27,1.88-2.55,2.8-3.83c3.63-5.16,6.96-10.47,9.72-16.01
			c2.74-5.55,4.83-11.38,5.76-17.41C782.18,670.27,781.87,664.08,780.5,658.09z M499.04,738.06c-0.82-0.76-1.64-1.52-2.46-2.28
			c-1.11-1.03-2.22-2.05-3.32-3.09c-2.34-2.2-4.69-4.41-6.98-6.65c-2.33-2.22-4.58-4.48-6.83-6.75l-3.33-3.43
			c-1.09-1.15-2.15-2.33-3.23-3.49c-2.14-2.34-4.24-4.7-6.21-7.13c-4.01-4.83-7.71-9.83-10.76-15.09c-0.8-1.3-1.46-2.65-2.18-3.98
			c-0.36-0.66-0.65-1.35-0.97-2.03c-0.29-0.68-0.63-1.35-0.9-2.04c-0.52-1.39-1.11-2.75-1.5-4.15c-0.21-0.7-0.46-1.39-0.63-2.09
			l-0.5-2.11c-1.22-5.65-1.19-11.39-0.06-16.99c0.11-0.7,0.29-1.4,0.47-2.1c0.18-0.69,0.31-1.4,0.53-2.09
			c0.42-1.38,0.81-2.77,1.32-4.14c0.45-1.38,1.02-2.74,1.55-4.11c0.25-0.68,0.58-1.36,0.86-2.04c0.3-0.68,0.56-1.36,0.89-2.04
			c1.24-2.7,2.52-5.4,3.9-8.08c0.67-1.36,1.35-2.67,2.07-3.96c0.71-1.3,1.5-2.54,2.32-3.77c0.83-1.2,1.75-2.35,2.76-3.35
			c0.5-0.51,1.04-0.94,1.59-1.33c0.56-0.35,1.13-0.67,1.7-0.83c0.56-0.16,1.1-0.21,1.67-0.12c0.57,0.08,1.18,0.28,1.78,0.63
			c1.19,0.67,2.3,1.71,3.25,2.85c1.92,2.29,3.4,4.94,4.72,7.63c1.28,2.7,2.38,5.49,3.36,8.3c1.92,5.64,3.63,15.66,4.64,21.48
			c0.37,1.35,0.83,7.11,0.86,7.49c0.3,3.99,0.24,9.28,0.34,9.46c0.67,1.15,3.15,5.51,2.95,6.5c0,0,0,0,0,0.01
			c-0.25,1.12-1.37,6.22,1.63,9.07l0.01,0c0.08,0.07,0.14,0.14,0.21,0.21c0.45,0.44,0.78,0.86,1.04,1.27
			c0.6,0.94,0.79,1.76,0.81,2.38c0.02,0.35-0.02,0.64-0.07,0.86c0,0-0.01,0.01-0.01,0.01c-0.06,0.27-0.13,0.43-0.13,0.43
			c-0.04,0.06-0.08,0.11-0.12,0.17c0,0,0,0-0.01,0.01v0c-0.4,0.58-0.7,1.09-0.93,1.53c-0.01,0.01-0.02,0.02-0.02,0.03
			c-1.5,2.98,0.34,3.33,0.79,5.73c0,0,0,0,0,0.01c0.07,0.37,0.12,0.76,0.14,1.17c0.02,0.32,0.03,0.64,0.04,0.97
			c0.06,2.48-0.06,5.46,2.03,8.92c0.01,0,0.01,0.01,0.01,0.02c0.67,1.1,1.18,2.42,1.57,3.91c1.24,4.66,1.33,11.01,1.33,17.57
			c0,0.14,0.01,0.29,0.01,0.43c0,0,0,0,0,0c0.03,0.69,0.13,1.39,0.31,2.07c0.02,0.1,0.05,0.2,0.08,0.3
			C500.63,739.52,499.83,738.79,499.04,738.06z M778.09,676.06c-0.39,5.79-2,11.55-4.47,17.06c-2.45,5.52-5.72,10.8-9.41,15.86
			c-6,8.24-13.06,15.93-20.51,23.35c-1.7,1.7-3.42,3.38-5.16,5.05c-2.33,2.25-4.69,4.47-7.07,6.68c-0.36,0.34-0.74,0.68-1.1,1.02
			c-0.06-1.22-0.25-2.42-0.56-3.59c-0.33-1.27-0.79-2.51-1.37-3.68c-0.09-0.2-0.19-0.41-0.27-0.65c-0.01,0-0.01,0-0.01-0.01
			c-0.08-0.21-0.14-0.42-0.21-0.65c-0.01-0.04-0.02-0.08-0.03-0.11c-0.91-3.25-1.19-8.92-1.26-13.46c-0.01-0.86-0.02-1.69-0.02-2.45
			c0-0.82,0.01-1.56,0.02-2.19c0.01,0,0.01-0.01,0-0.01c0.02-1.01,0.03-1.75,0.05-2.1c0.01-0.14,0.01-0.21,0.01-0.21l-0.02-0.47
			l-0.9-17.41l0.39-1.08l2.11-5.74l3.54-9.66l2.15-7.41c0,0,0.52-3.1,1.16-7c0.32-1.91,0.68-4.01,1.02-6.05
			c0.69-4.05,1.33-7.8,1.57-9.12c0.31-1.67-0.25-2.17-0.89-2.26c0.82-3.46,1.79-6.88,2.95-10.26c1-2.84,2.11-5.65,3.42-8.38
			c1.34-2.7,2.86-5.38,4.83-7.66c0.98-1.12,2.12-2.15,3.35-2.75c0.61-0.3,1.21-0.46,1.77-0.5c0.57-0.03,1.12,0.05,1.69,0.27
			c1.15,0.43,2.29,1.34,3.28,2.38c1,1.05,1.9,2.22,2.72,3.46c1.67,2.48,3,5.11,4.4,7.86c1.39,2.71,2.76,5.43,4.07,8.16
			c2.62,5.45,5.01,10.94,6.66,16.56C777.65,664.5,778.49,670.27,778.09,676.06z"/>
		<path class="st2" d="M744.43,735.94c-1,1.11-2.01,2.22-3.03,3.33c-2.18,2.38-4.39,4.73-6.62,7.07c-1.74,1.79-3.48,3.57-5.24,5.34
			c-0.14,0.15-0.3,0.3-0.44,0.44c-0.19,0.45-0.41,0.89-0.65,1.34c-1.09,1.98-6.57,7.31-13.17,13.35c-0.05,0.05-0.1,0.09-0.16,0.14
			c-0.03,0.03-0.07,0.06-0.1,0.1c-0.27,0.25-0.55,0.5-0.83,0.75c-10.62,9.66-23.59,20.71-26.01,22.71
			c-2.67,2.2-13.67,15.04-22.13,24.14l-0.01,0.01c-4.31,4.63-7.95,8.29-9.5,9.09c-4.6,2.38-27.04,11.4-43.72,8.07
			c-16.68-3.32-43.72-18.04-53.49-28.5c-0.74-0.79-1.6-1.69-2.56-2.68c-11.58-11.99-37.39-37.1-37.83-37.53c-0.01,0-0.01,0-0.01,0
			s-0.01,0-0.01-0.01c-0.1-0.14-0.86-1.16-1.75-2.36c-4.75-3.96-9.09-8.12-13.37-12.32l-1.44-1.46l-5.11-5.19l-0.69-5.99
			c0.82,0.76,1.64,1.52,2.46,2.28c0.79,0.74,1.59,1.47,2.38,2.2c-0.03-0.1-0.05-0.2-0.08-0.3c-0.17-0.69-0.28-1.39-0.31-2.07
			c0,0,0,0,0,0c-0.01-0.14-0.01-0.29-0.01-0.43c0-6.57-0.09-12.91-1.33-17.57c14.57,19.35,55.48,64.49,117.93,60.73
			c54.7-3.3,91.5-37.06,109.06-57.69c0.06,4.54,0.34,10.2,1.26,13.46c0.01,0.04,0.02,0.08,0.03,0.11c0.06,0.23,0.13,0.45,0.21,0.65
			c0,0,0,0,0.01,0.01c0.08,0.23,0.17,0.45,0.27,0.65c0.57,1.18,1.04,2.41,1.37,3.68c0.31,1.17,0.5,2.38,0.56,3.59
			c0.36-0.34,0.74-0.68,1.1-1.02c2.38-2.21,4.75-4.43,7.07-6.68c1.74-1.67,3.46-3.35,5.16-5.05L744.43,735.94z"/>
		<g>
			<g>
				<path class="st9" d="M504.52,705.56c-0.32,0.03-0.67-0.74-0.79-1.7c-0.12-0.96-0.04-1.72,0.17-1.68
					c0.21,0.03,0.89,0.14,1.5,0.23c0.61,0.09,2.24,0.52,2.19,0.78c-0.05,0.26-0.49,0.42-0.99,0.36c-0.5-0.06-1.72,0.25-1.65,0.86
					C505.04,705.02,504.84,705.54,504.52,705.56z"/>
			</g>
			<g>
				<path class="st9" d="M614.36,827.91c-0.44,0-0.82,0-0.86,0s-0.1-0.01-0.13-0.03c-0.03-0.01-0.46-0.19-0.95-0.4
					c-0.49-0.2-1.65-0.95-1.5-1.18c0.15-0.23,0.65-0.26,1.11-0.06c0.46,0.2,2.09,0.7,2.59,0.69c0.5-0.01,3.01,0.05,3.04,0.31
					C617.68,827.51,614.8,827.91,614.36,827.91z M627.11,826.55c-1.29,0.21-2.39,0.18-2.45-0.08c-0.06-0.26,0.94-0.64,2.21-0.86
					c1.27-0.21,4.59-0.68,4.68-0.42C631.63,825.45,628.4,826.34,627.11,826.55z M604.77,823.45c-0.16,0.23-1.19-0.04-2.29-0.6
					c-1.1-0.55-3.87-2.28-3.69-2.5c0.17-0.22,1.22,0.08,2.32,0.66C602.21,821.6,604.93,823.22,604.77,823.45z M640.7,823.07
					c-1.22,0.42-2.32,0.56-2.43,0.32c-0.11-0.25,0.78-0.78,1.98-1.2c1.2-0.41,4.31-1.42,4.46-1.19
					C644.85,821.24,641.92,822.65,640.7,823.07z M652.97,817.16c-1.05,0.67-2.06,1.03-2.25,0.82c-0.18-0.21,0.5-0.92,1.53-1.57
					c1.03-0.65,3.67-2.33,3.9-2.14C656.37,814.45,654.02,816.49,652.97,817.16z M592.96,817.06c-0.18,0.21-1.19-0.12-2.23-0.74
					c-1.04-0.62-3.65-2.5-3.46-2.71c0.19-0.21,1.21,0.15,2.25,0.8C590.57,815.05,593.14,816.85,592.96,817.06z M581.72,810
					c-0.2,0.2-1.18-0.18-2.18-0.86c-1-0.68-3.47-2.67-3.26-2.88c0.21-0.2,1.19,0.21,2.2,0.9C579.47,807.87,581.92,809.8,581.72,810z
					 M662.59,808.69c-0.75,0.81-1.56,1.35-1.82,1.19c-0.25-0.16,0.15-0.95,0.89-1.77c0.75-0.81,3.13-3.04,3.38-2.88
					C665.3,805.39,663.34,807.87,662.59,808.69z M570.95,802.43c-0.21,0.2-1.17-0.23-2.13-0.94c-0.96-0.71-3.3-2.79-3.08-2.99
					c0.22-0.19,1.18,0.25,2.14,0.98C568.83,800.21,571.16,802.24,570.95,802.43z M671.24,799.39c-0.78,0.83-1.63,1.38-1.88,1.22
					c-0.25-0.16,0.18-0.97,0.96-1.8c0.78-0.83,3.12-2.97,3.37-2.8C673.95,796.16,672.02,798.56,671.24,799.39z M560.62,794.48
					c-0.22,0.19-1.16-0.27-2.08-1.02c-0.92-0.75-3.17-2.9-2.94-3.08c0.23-0.19,1.17,0.28,2.09,1.04
					C558.61,792.19,560.84,794.3,560.62,794.48z M679.95,790.17c-0.8,0.84-1.65,1.39-1.9,1.23s0.2-0.98,0.99-1.82
					c0.8-0.84,3.12-2.94,3.37-2.77C682.66,786.97,680.75,789.33,679.95,790.17z M550.66,786.21c-0.23,0.18-1.15-0.3-2.04-1.07
					c-0.89-0.77-3.05-2.99-2.82-3.17c0.23-0.18,1.15,0.32,2.05,1.1C548.75,783.87,550.89,786.03,550.66,786.21z M688.7,780.99
					c-0.81,0.84-1.67,1.4-1.92,1.24c-0.25-0.16,0.2-0.99,1.01-1.83c0.81-0.84,3.12-2.91,3.37-2.75
					C691.41,777.8,689.51,780.14,688.7,780.99z M541.03,777.68c-0.24,0.18-1.14-0.33-2-1.12c-0.86-0.79-2.94-3.06-2.7-3.23
					c0.24-0.17,1.14,0.34,2.01,1.15C539.2,775.28,541.26,777.5,541.03,777.68z M697.49,771.81c-0.82,0.85-1.69,1.41-1.94,1.25
					c-0.25-0.16,0.21-0.99,1.03-1.84c0.82-0.85,3.11-2.89,3.36-2.73C700.19,768.65,698.3,770.96,697.49,771.81z M531.7,768.91
					c-0.24,0.17-1.13-0.36-1.97-1.18c-0.84-0.82-2.83-3.12-2.59-3.29c0.24-0.17,1.13,0.37,1.96,1.19
					C529.94,766.46,531.94,768.74,531.7,768.91z M706.99,761.93c-1.21,1.26-2.4,2.15-2.65,1.99c-0.25-0.16,0.54-1.33,1.75-2.58
					c1.21-1.26,2.4-2.15,2.65-1.99C708.99,759.52,708.2,760.68,706.99,761.93z M522.66,759.94c-0.25,0.17-1.12-0.39-1.94-1.23
					c-0.82-0.84-2.72-3.17-2.47-3.34c0.25-0.16,1.11,0.39,1.91,1.23C520.97,757.44,522.91,759.77,522.66,759.94z M715.51,753.1
					c-1.05,1.09-2.12,1.85-2.37,1.68c-0.25-0.16,0.41-1.19,1.46-2.28c1.05-1.09,2.48-2.56,2.49-2.57c0.01-0.01,0.22,0.11,0.47,0.28
					c0.25,0.16,0.44,0.31,0.43,0.32C717.99,750.54,716.57,752.01,715.51,753.1z M513.92,750.76c-0.25,0.16-1.3-0.63-2.32-1.76
					c-1.02-1.13-2.18-2.78-1.92-2.93c0.26-0.15,0.92,0.23,1.47,0.85C511.71,747.54,514.18,750.6,513.92,750.76z M718.33,741.53
					c0,1.6-0.26,2.91-0.58,2.91c-0.32,0-0.58-1.31-0.58-2.91c0-1.6,0.26-2.91,0.58-2.91C718.07,738.61,718.33,739.92,718.33,741.53z
					 M508.73,740.34c-0.32,0.03-0.73-1.26-0.93-2.85c-0.19-1.59-0.09-2.92,0.23-2.95c0.32-0.03,0.73,1.26,0.93,2.85
					C509.15,738.99,509.05,740.31,508.73,740.34z M718.33,729.88c0,1.6-0.26,2.91-0.58,2.91c-0.32,0-0.58-1.31-0.58-2.91
					c0-1.6,0.26-2.91,0.58-2.91C718.07,726.96,718.33,728.27,718.33,729.88z M507.33,728.75c-0.32,0.03-0.73-1.26-0.93-2.85
					c-0.19-1.59-0.09-2.92,0.23-2.95c0.32-0.03,0.73,1.26,0.93,2.85C507.75,727.39,507.65,728.72,507.33,728.75z M718.33,718.23
					c0,1.6-0.26,2.91-0.58,2.91c-0.32,0-0.58-1.31-0.58-2.91c0-1.6,0.26-2.91,0.58-2.91C718.07,715.31,718.33,716.62,718.33,718.23z
					 M505.92,717.15c-0.32,0.03-0.73-1.26-0.93-2.85c-0.19-1.59-0.09-2.92,0.23-2.95c0.32-0.03,0.73,1.26,0.93,2.85
					C506.34,715.8,506.24,717.13,505.92,717.15z"/>
			</g>
			<g>
				<path class="st9" d="M718.33,708.2c0,0.92-0.26,1.67-0.58,1.67c-0.32,0-0.58-0.54-0.58-1.2s-0.35-1.21-0.77-1.22
					s-2.14-0.31-2.12-0.57c0.02-0.26,0.81-0.45,1.75-0.41c0.94,0.03,1.85,0.06,2.01,0.06C718.2,706.53,718.33,707.28,718.33,708.2z"
					/>
			</g>
			<g>
				<path class="st9" d="M707.43,706.34c-0.04,0.26-1.08,0.37-2.32,0.23c-1.24-0.13-4.55-0.76-4.5-1.02
					c0.05-0.26,1.13-0.34,2.4-0.19C704.28,705.53,707.47,706.08,707.43,706.34z M693.83,704.58c-0.06,0.26-1.12,0.3-2.35,0.1
					s-4.46-0.99-4.39-1.24c0.07-0.26,1.14-0.29,2.39-0.07C690.71,703.59,693.89,704.33,693.83,704.58z M520.35,704.33
					c-0.27,0-1.32-0.01-2.34-0.02c-1.02-0.01-3.6-0.31-3.58-0.58s1.04-0.45,2.28-0.41c1.24,0.04,4.6,0.26,4.61,0.52
					C521.31,704.11,520.61,704.33,520.35,704.33z M530.5,703.94c-1.25,0.08-2.29-0.07-2.31-0.33c-0.02-0.26,0.98-0.54,2.22-0.62
					c1.24-0.08,4.61-0.15,4.64,0.11C535.09,703.36,531.75,703.86,530.5,703.94z M544.23,702.51c-1.24,0.17-2.3,0.09-2.35-0.17
					c-0.05-0.26,0.92-0.61,2.16-0.78c1.24-0.17,4.57-0.45,4.63-0.19S545.48,702.34,544.23,702.51z M680.37,702.16
					c-0.08,0.26-1.14,0.26-2.36,0c-1.22-0.25-4.39-1.17-4.31-1.42s1.16-0.24,2.38,0.03C677.31,701.03,680.45,701.9,680.37,702.16z
					 M557.79,700.24c-1.24,0.24-2.3,0.23-2.37-0.03s0.88-0.66,2.11-0.9c1.23-0.24,4.5-0.7,4.59-0.44
					C562.19,699.12,559.03,700.01,557.79,700.24z M667.07,699.19c-0.09,0.25-1.15,0.21-2.36-0.09c-1.21-0.3-4.32-1.32-4.23-1.57
					c0.1-0.25,1.17-0.2,2.38,0.11C664.07,697.95,667.16,698.94,667.07,699.19z M571.14,697.24c-1.22,0.31-2.3,0.36-2.39,0.1
					c-0.09-0.25,0.83-0.71,2.05-1.02c1.22-0.31,4.42-0.94,4.52-0.7C575.42,695.88,572.36,696.93,571.14,697.24z M653.94,695.76
					c-0.1,0.25-1.16,0.18-2.36-0.16s-4.25-1.46-4.14-1.71c0.11-0.25,1.17-0.16,2.37,0.19C651,694.43,654.04,695.51,653.94,695.76z
					 M584.21,693.45c-1.21,0.39-2.29,0.52-2.4,0.27c-0.11-0.25,0.77-0.77,1.97-1.16c1.2-0.39,4.28-1.24,4.4-1
					C588.32,691.8,585.42,693.05,584.21,693.45z M640.98,691.92c-0.11,0.25-1.17,0.14-2.35-0.23c-1.18-0.37-4.19-1.59-4.07-1.83
					c0.12-0.24,1.18-0.13,2.36,0.25C638.1,690.49,641.09,691.67,640.98,691.92z M596.76,688.89c-1.16,0.38-2.21,0.5-2.34,0.26
					c-0.13-0.24,0.74-0.76,1.93-1.15c1.19-0.39,4.48-1,4.56-0.75C600.99,687.5,597.92,688.5,596.76,688.89z M628.11,687.86
					c-0.09,0.25-1.16,0.24-2.37-0.02c-1.21-0.26-4.39-1-4.34-1.26c0.05-0.26,1.12-0.3,2.38-0.1
					C625.03,686.69,628.2,687.61,628.11,687.86z M610.02,686.55c-1.26,0.07-2.31-0.08-2.35-0.34s0.99-0.54,2.28-0.61
					c1.29-0.07,4.61,0.15,4.6,0.41C614.54,686.27,611.27,686.48,610.02,686.55z"/>
			</g>
		</g>
		<path class="st0" d="M729.54,751.68c-0.14,0.15-0.3,0.3-0.44,0.44c-0.19,0.45-0.41,0.89-0.65,1.34
			c-1.09,1.98-6.57,7.31-13.17,13.35c-0.05,0.05-0.1,0.09-0.16,0.14c-0.03,0.03-0.07,0.06-0.1,0.1c-0.27,0.25-0.55,0.5-0.83,0.75
			c-10.62,9.66-23.59,20.71-26.01,22.71c-2.67,2.2-13.67,15.04-22.13,24.14l-0.01,0.01c-4.31,4.63-7.95,8.29-9.5,9.09
			c-4.6,2.38-27.04,11.4-43.72,8.07c-16.68-3.32-43.72-18.04-53.49-28.5c-0.74-0.79-1.6-1.69-2.56-2.68
			c-11.58-11.99-37.39-37.1-37.83-37.53c-0.01,0-0.01,0-0.01,0s-0.01,0-0.01-0.01c-0.1-0.14-0.86-1.16-1.75-2.36
			c-4.75-3.96-9.09-8.12-13.37-12.32l-1.44-1.46c-1.86-3.5-3.03-6.53-3.33-8.9c-0.04-0.32-0.07-0.64-0.08-0.94
			c0,0,0.83,1.02,2.38,2.84c11.94,13.95,66.73,74.58,117.43,74.58c57.3,0,109.39-68.81,109.39-68.81S729.71,747.62,729.54,751.68z"
			/>
	</g>
	<path class="st0" d="M509.38,724.21c4.49,2.35,9.02,4.57,13.62,6.69c1.16,0.51,2.32,1.03,3.47,1.56c1.16,0.51,2.33,1,3.5,1.5
		c1.16,0.51,2.35,0.97,3.52,1.46l1.77,0.72l1.79,0.67c4.73,1.88,9.61,3.49,14.53,5c1.24,0.36,2.48,0.72,3.72,1.09l3.77,0.98
		l1.88,0.51l1.91,0.42c1.27,0.29,2.55,0.58,3.83,0.9c-1.32-0.11-2.64-0.24-3.96-0.38c-0.66-0.07-1.32-0.14-1.98-0.22l-1.96-0.32
		c-1.3-0.23-2.61-0.44-3.91-0.68c-1.29-0.28-2.57-0.59-3.86-0.88c-0.64-0.15-1.29-0.28-1.92-0.46l-1.89-0.54
		c-1.26-0.37-2.54-0.69-3.77-1.1l-3.71-1.24c-1.24-0.42-2.44-0.9-3.65-1.35l-1.81-0.7l-1.78-0.75c-1.18-0.51-2.39-0.98-3.54-1.54
		c-1.16-0.55-2.32-1.08-3.47-1.64c-1.14-0.57-2.27-1.15-3.4-1.74C517.61,729.79,513.29,727.19,509.38,724.21z"/>
	<path class="st0" d="M706.35,755.46c-3.24,3.48-6.58,6.85-10.01,10.14c-0.88,0.81-1.75,1.62-2.61,2.44
		c-0.87,0.81-1.78,1.6-2.66,2.4c-0.88,0.81-1.8,1.58-2.7,2.37L687,774l-1.4,1.14c-3.67,3.1-7.58,6-11.58,8.81
		c-1.01,0.69-2.03,1.38-3.04,2.08l-3.13,1.98l-1.56,1.01l-1.62,0.94c-1.08,0.63-2.16,1.27-3.22,1.93c1.19-0.47,2.38-0.97,3.56-1.48
		c0.59-0.25,1.18-0.51,1.77-0.77l1.71-0.85c1.13-0.58,2.27-1.16,3.39-1.75c1.09-0.63,2.17-1.28,3.26-1.92
		c0.54-0.33,1.1-0.63,1.62-0.98l1.55-1.04c1.03-0.7,2.09-1.37,3.09-2.1l2.97-2.22c0.99-0.74,1.92-1.53,2.87-2.3l1.41-1.17l1.36-1.21
		c0.89-0.82,1.84-1.59,2.69-2.45c0.86-0.84,1.73-1.67,2.57-2.52c0.84-0.86,1.66-1.72,2.47-2.59
		C700.94,763.03,703.91,759.37,706.35,755.46z"/>
</g>
<g>
	<rect x="635.86" y="1047.11" class="st10" width="55.04" height="39.13"/>
	<path class="st2" d="M623.93,1086.9c0-9.12,7.46-16.58,16.58-16.58h38.46c9.12,0,19.37,6.92,22.77,15.38l69.85,173.5
		c3.41,8.46-1.27,15.38-10.39,15.38h-120.7c-9.12,0-16.58-7.46-16.58-16.58V1086.9z"/>
	<path class="st10" d="M767.77,1261.95c-1.22,3.91-4.97,6.51-10.38,6.51H643.98c-8.57,0-15.58-7.01-15.58-15.58V1092.1
		c0-6.55,4.1-12.19,9.86-14.48c-1.51,2.39-2.38,5.22-2.38,8.25v160.77c0,8.57,7.01,15.58,15.58,15.58h113.41
		C765.9,1262.22,766.86,1262.13,767.77,1261.95z"/>
	<path class="st2" d="M694.89,1028.55c0,0-16.58,16.58,17.91,13.93l1.99,12.6l-81.57-3.32l-2.65-18.57l-8.48,1.34l-4.12,0.65v-29.84
		c0,0,2.08-1.59,5.93-3.87c13.73-8.18,49.9-25.39,93.93-11.76c2.28,0.7,4.59,1.49,6.91,2.37l2.65,25.86l-6.6,2.16L694.89,1028.55z"
		/>
	<path class="st2" d="M714.78,1055.07l12.6,43.77c0,0,1.33,7.29-7.29,11.94l-29.18-63.66L714.78,1055.07z"/>
	<path class="st10" d="M727.38,1017.93l-6.6,2.16l-2.96-30.39c2.28,0.7,4.59,1.49,6.91,2.37L727.38,1017.93z"/>
	<path class="st10" d="M623.89,1001.46l-1.8,33.07l-4.12,0.65v-29.84C617.96,1005.33,620.04,1003.75,623.89,1001.46z"/>
</g>
<path class="st4" d="M721.45,1069.93c-14.99-4.36-49.21,14.21-66.45,24.45c-12,4.23-25.04,15.67-38.63,39.23
	c-0.28,0.48-0.56,0.93-0.83,1.42c-1.48,2.63-2.72,5.25-3.71,7.83l-8.4,5.1l-21.11,12.79l-70.59,32.28l-135.87,63.08l-17.04,8.44
	c0,0-26.42,61.49-16.58,74.8c9.76,13.18,55.96,34.24,55.96,34.24c0.25,0.06,0.51,0.13,0.76,0.19l92.47-58.37l118.19-92.2l-0.13-0.33
	l29.29-14.68c0,0,16.33,3.81,34.13,4.64c15.9,0.75,32.98-0.89,40.64-9.74c0.77-0.89,1.46-1.87,2.02-2.91
	c3.34-6.13,8.08-11.98,12.31-18.06c11.61-16.67,19.32-34.99-16.63-65.29c-4.81-4.06-10.96-9.9-18.18-14.87
	C711.49,1090.38,734.49,1073.72,721.45,1069.93z"/>
<polyline class="st11" points="1461,1399 726.79,1019.56 725.09,988.95 1495,735 "/>
</svg>
